<?xml version="1.0" encoding="UTF-8"?><svg id="Layer_2" xmlns="http://www.w3.org/2000/svg" xmlns:xlink="http://www.w3.org/1999/xlink" viewBox="0 0 75.77 101.21"><defs><style>.cls-1{fill:#9877e4;}.cls-2{fill:#a8dadc;}.cls-3{fill:none;}.cls-4{fill:url(#New_Pattern_3);}.cls-5{fill:#5f646b;}</style><pattern id="New_Pattern_3" x="0" y="0" width="155.16" height="138.84" patternTransform="translate(-197.39 666.23)" patternUnits="userSpaceOnUse" viewBox="0 0 155.16 138.84"><g><rect class="cls-3" y="0" width="155.16" height="138.84"/><circle class="cls-5" cx="76.55" cy="93.97" r="44.86"/><circle class="cls-1" cx="44.87" cy="44.87" r="44.86"/><circle class="cls-2" cx="110.29" cy="53.39" r="44.86"/></g></pattern></defs><g id="Layer_1-2"><g><path class="cls-4" d="M6.43,6.44h31.49c15.84,0,29.27,11.84,31.24,27.54l.13,1.05h6.46l-.15-1.34C73.47,14.48,57.27,0,37.92,0L0,.04V75.9l19.51-.04v-6.44H6.43V6.44Z"/><path class="cls-4" d="M69.17,41.93c-1.97,15.7-15.41,27.54-31.24,27.54h-6.17V16.34h-6.44v53.13h0v6.44h0v25.3h6.44v-25.3h6.17c19.35,0,35.55-14.48,37.69-33.69l.15-1.34h-6.46l-.13,1.05Z"/></g></g></svg>