<svg width="60" height="69" xmlns="http://www.w3.org/2000/svg" xmlns:xlink="http://www.w3.org/1999/xlink" xml:space="preserve" overflow="hidden"><g transform="translate(-75 -609)"><path d="M110.95 643.952 113.98 638.707C112.341 637.435 111.288 635.449 111.288 633.214 111.288 629.379 114.397 626.26 118.242 626.26 122.086 626.26 125.195 629.369 125.195 633.214 125.195 637.058 122.086 640.167 118.242 640.167 117.308 640.167 116.424 639.988 115.609 639.651L112.579 644.886 110.95 643.952ZM75.4967 616.525C75.4967 620.359 78.606 623.479 82.4503 623.479 83.3841 623.479 84.2682 623.3 85.0828 622.962L89.1358 629.985C82.6391 634.763 78.4172 642.472 78.4172 651.154 78.4172 665.667 90.1788 677.429 104.692 677.429 119.205 677.429 130.967 665.667 130.967 651.154 130.967 650.399 130.937 649.654 130.877 648.919L113.483 648.919C115.063 650.796 116.007 653.22 116.007 655.873 116.007 661.863 111.149 666.71 105.169 666.71 99.1887 666.71 94.3311 661.853 94.3311 655.873 94.3311 652.197 96.1589 648.949 98.9603 646.992L101.573 651.522C100.321 652.555 99.5265 654.124 99.5265 655.882 99.5265 659.002 102.06 661.535 105.179 661.535 108.298 661.535 110.831 659.002 110.831 655.882 110.831 654.124 110.036 652.565 108.775 651.522L112.52 645.045 134.513 645.045C134.513 628.843 121.381 615.71 105.179 615.71L105.179 624.879 104.712 624.879C99.5662 624.879 94.7682 626.359 90.7152 628.912L100.599 646.038C101.99 645.382 103.55 645.025 105.189 645.025L110.364 645.025 107.166 650.568C106.55 650.339 105.884 650.21 105.189 650.21 104.493 650.21 103.828 650.339 103.212 650.568L100.599 646.038C100.073 646.286 99.5662 646.575 99.0894 646.902 99.0497 646.932 99.0099 646.952 98.9702 646.982L89.1258 629.975C89.6324 629.598 90.149 629.25 90.6854 628.912L86.702 622.018C88.3411 620.747 89.394 618.76 89.394 616.525 89.404 612.68 86.2848 609.571 82.4503 609.571 78.6159 609.571 75.4967 612.68 75.4967 616.525ZM112.579 644.886 112.5 645.025 112.579 644.886Z" stroke="#000000" stroke-width="0.993378" stroke-miterlimit="10" fill="none" fill-rule="evenodd"/></g></svg>